<svg width="477" height="147" viewBox="0 0 477 147" fill="none" xmlns="http://www.w3.org/2000/svg">
<path d="M21.75 108V68H47.5C66.25 68 77.5 58.25 77.5 42.25C77.5 26.5 66.5 16.75 47.5 16.75H11.25V108H21.75ZM21.75 25.5H46.75C60.25 25.5 67 31.5 67 42.25C67 53.25 60.25 59.25 46.75 59.25H21.75V25.5Z" fill="#1264AF"/>
<path d="M86.82 16.75H76.32V108H86.82V16.75Z" fill="#1293AF"/>
<path d="M142.89 16.75L116.14 53.5L89.64 16.75H77.14L110.14 61.25L75.39 108H87.89L116.14 69.25L144.39 108H156.89L122.14 61.5L155.39 16.75H142.89Z" fill="#12AFA6"/>
<path d="M202.96 99.25H155.96V66.25H200.46V57.25H155.96V25.5H202.96V16.75H145.46V108H202.96V99.25Z" fill="#6AAF12"/>
<path d="M258.03 99H212.28V16.75H201.78V108H258.03V99Z" fill="#AF8D12"/>
<path d="M314.35 99.25H267.35V66.25H311.85V57.25H267.35V25.5H314.35V16.75H256.85V108H314.35V99.25Z" fill="#EF5E0C"/>
<path d="M370.42 16.75L343.67 53.5L317.17 16.75H304.67L337.67 61.25L302.92 108H315.42L343.67 69.25L371.92 108H384.42L349.67 61.5L382.92 16.75H370.42Z" fill="#EF0C0C"/>
<rect x="387" y="78" width="30" height="30" fill="#EF0C0C"/>
<rect x="417" y="48" width="30" height="30" fill="#6AAF12"/>
<rect x="447" y="18" width="30" height="30" fill="#16E6E6"/>
</svg>
